# xmcd CD database file
#
# Track frame offsets:
#	150
#	12692
#	33127
#	54767
#	74490
#	90765
#	104235
#	127285
#	143300
#	156022
#	173422
#
# Disc length: 2511 seconds
#
# Revision: 0
# Processed by: cddbd v1.5.2PL0 Copyright (c) Steve Scherf et al.
# Submitted via: CDex 1.51
#
DISCID=8709cd0b
DTITLE=Captain Luke and Cool John - Outsider Lounge Music
DYEAR=2001
DGENRE=Blues
TTITLE0=Chokin' Kind
TTITLE1=Still Water
TTITLE2=Poke Salad Annie
TTITLE3=I Got What I Wanted
TTITLE4=Waiter
TTITLE5=Hotel Happiness
TTITLE6=Rainy Night in Georgia
TTITLE7=Old Black Buck
TTITLE8=It's Just a Matter of Time
TTITLE9=Put on Your Red Dress
TTITLE10=Careless Love
EXTD=YEAR: 2001
EXTT0=
EXTT1=
EXTT2=
EXTT3=
EXTT4=
EXTT5=
EXTT6=
EXTT7=
EXTT8=
EXTT9=
EXTT10=
PLAYORDER=
